<svg width="24" height="24" viewBox="0 0 24 24" fill="none" xmlns="http://www.w3.org/2000/svg">
<g id="Group">
<path id="Vector" fill-rule="evenodd" clip-rule="evenodd" d="M12 0.295898C5.373 0.295898 0 5.6679 0 12.2959C0 17.5979 3.438 22.0959 8.206 23.6829C8.806 23.7939 9.026 23.4229 9.026 23.1059C9.026 22.8199 9.015 21.8749 9.01 20.8719C5.672 21.5979 4.967 19.4559 4.967 19.4559C4.421 18.0689 3.635 17.6999 3.635 17.6999C2.546 16.9549 3.717 16.9709 3.717 16.9709C4.922 17.0559 5.556 18.2079 5.556 18.2079C6.626 20.0419 8.363 19.5119 9.048 19.2049C9.156 18.4289 9.467 17.8999 9.81 17.5999C7.145 17.2969 4.343 16.2679 4.343 11.6699C4.343 10.3599 4.812 9.2889 5.58 8.4489C5.455 8.1459 5.044 6.9259 5.696 5.2729C5.696 5.2729 6.704 4.9509 8.997 6.5029C9.954 6.2369 10.98 6.1039 12 6.0989C13.02 6.1039 14.047 6.2369 15.006 6.5029C17.296 4.9499 18.303 5.2729 18.303 5.2729C18.956 6.9259 18.545 8.1459 18.421 8.4489C19.19 9.2889 19.656 10.3599 19.656 11.6699C19.656 16.2789 16.849 17.2939 14.177 17.5909C14.607 17.9629 14.991 18.6939 14.991 19.8129C14.991 21.4189 14.977 22.7109 14.977 23.1059C14.977 23.4249 15.193 23.7999 15.801 23.6819C20.567 22.0929 24.001 17.5969 24.001 12.2969C24 5.6689 18.627 0.295898 12 0.295898Z" fill="#525F68"/>
<path id="Vector_2" d="M4.54497 17.5259C4.51897 17.5859 4.42497 17.6039 4.33897 17.5629C4.25197 17.5239 4.20297 17.4419 4.23097 17.3829C4.25697 17.3219 4.35097 17.3049 4.43797 17.3459C4.52497 17.3839 4.57497 17.4659 4.54497 17.5259Z" fill="#525F68"/>
<path id="Vector_3" d="M5.03103 18.0679C4.97403 18.1209 4.86203 18.0959 4.78603 18.0129C4.70703 17.9289 4.69303 17.8169 4.75103 17.7639C4.81003 17.7109 4.91803 17.7359 4.99703 17.8199C5.07603 17.9029 5.09103 18.0139 5.03103 18.0679Z" fill="#525F68"/>
<path id="Vector_4" d="M5.50398 18.759C5.42998 18.81 5.30998 18.762 5.23598 18.656C5.16198 18.549 5.16198 18.421 5.23798 18.37C5.31198 18.319 5.43098 18.365 5.50598 18.471C5.57898 18.579 5.57898 18.707 5.50398 18.759Z" fill="#525F68"/>
<path id="Vector_5" d="M6.15201 19.4268C6.08601 19.4998 5.94601 19.4798 5.84401 19.3808C5.73901 19.2838 5.71001 19.1468 5.77601 19.0738C5.84301 19.0008 5.98401 19.0218 6.08701 19.1198C6.19101 19.2168 6.22201 19.3548 6.15201 19.4268Z" fill="#151A2D"/>
<path id="Vector_6" d="M7.04701 19.814C7.01801 19.908 6.88301 19.951 6.74701 19.911C6.61101 19.87 6.52201 19.76 6.55001 19.665C6.57801 19.57 6.71401 19.526 6.85101 19.569C6.98601 19.609 7.07501 19.719 7.04701 19.814Z" fill="#151A2D"/>
<path id="Vector_7" d="M8.029 19.886C8.032 19.985 7.917 20.067 7.774 20.069C7.631 20.072 7.514 19.992 7.513 19.895C7.513 19.795 7.626 19.714 7.769 19.711C7.912 19.708 8.029 19.788 8.029 19.886Z" fill="#151A2D"/>
<path id="Vector_8" d="M8.94302 19.7308C8.96002 19.8268 8.86102 19.9268 8.71902 19.9528C8.58002 19.9788 8.45102 19.9188 8.43302 19.8228C8.41602 19.7238 8.51702 19.6248 8.65602 19.5988C8.79702 19.5738 8.92502 19.6318 8.94302 19.7308Z" fill="#151A2D"/>
</g>
</svg>
